<svg xmlns="http://www.w3.org/2000/svg" width="206pt" height="160" viewBox="0 0 206 120.4"><g class="graph" transform="translate(4 116.4)"><path fill="#fff" d="M-4 4v-120.4h206V4z"></path><g class="node"><a><path fill="none" stroke="#000" d="M80.27-87.1h37.46c4.14 0 8.27-4.13 8.27-8.27v-8.26c0-4.14-4.13-8.27-8.27-8.27H80.27c-4.14 0-8.27 4.13-8.27 8.27v8.26c0 4.14 4.13 8.27 8.27 8.27"></path><text x="98.89" y="-95.3" font-family="Times,serif" font-size="14" text-anchor="middle">S</text></a></g><g class="node"><a><path fill="none" stroke="#000" d="M12-.5h30c6 0 12-6 12-12v-25.6c0-6-6-12-12-12H12c-6 0-12 6-12 12v25.6c0 6 6 12 12 12"></path><text x="26.61" y="-33.5" font-family="Times,serif" font-size="14" text-anchor="middle"> </text><path fill="none" stroke="#000" d="M0-25.3h53.21"></path><text x="26.61" y="-8.7" font-family="Times,serif" font-size="14" text-anchor="middle">a</text></a></g><g class="edge"><path fill="none" stroke="#000" d="M87.43-86.9c-7.71 7.74-18.27 18.32-28.39 28.47"></path><path stroke="#000" d="m61.68-56.12-9.54 4.61 4.58-9.55z"></path></g><g class="node"><a><path fill="none" stroke="#000" d="M84-.5h30c6 0 12-6 12-12v-25.6c0-6-6-12-12-12H84c-6 0-12 6-12 12v25.6c0 6 6 12 12 12"></path><text x="98.61" y="-33.5" font-family="Times,serif" font-size="14" text-anchor="middle"> </text><path fill="none" stroke="#000" d="M72-25.3h53.21"></path><text x="98.61" y="-8.7" font-family="Times,serif" font-size="14" text-anchor="middle">a</text></a></g><g class="edge"><path fill="none" stroke="#000" d="M99-86.9v25.15"></path><path stroke="#000" d="m102.5-61.95-3.5 10-3.5-10z"></path></g><g class="node"><a><path fill="none" stroke="#000" d="M156-.5h30c6 0 12-6 12-12v-25.6c0-6-6-12-12-12h-30c-6 0-12 6-12 12v25.6c0 6 6 12 12 12"></path><text x="170.61" y="-33.5" font-family="Times,serif" font-size="14" text-anchor="middle"> </text><path fill="none" stroke="#000" d="M144-25.3h53.21"></path><text x="170.61" y="-8.7" font-family="Times,serif" font-size="14" text-anchor="middle">a</text></a></g><g class="edge"><path fill="none" stroke="#000" d="M110.57-86.9c7.71 7.74 18.27 18.32 28.39 28.47"></path><path stroke="#000" d="m141.28-61.06 4.58 9.55-9.54-4.61z"></path></g></g></svg>