<svg xmlns="http://www.w3.org/2000/svg" width="206pt" height="392" viewBox="0 0 206 293.6"><g class="graph" transform="translate(4 289.6)"><path fill="#fff" d="M-4 4v-293.6h206V4z"></path><g class="node"><a><path fill="none" stroke="#000" d="M44.27-260.3h37.46c4.14 0 8.27-4.13 8.27-8.27v-8.26c0-4.14-4.13-8.27-8.27-8.27H44.27c-4.14 0-8.27 4.13-8.27 8.27v8.26c0 4.14 4.13 8.27 8.27 8.27"></path><text x="62.89" y="-268.5" font-family="Times,serif" font-size="14" text-anchor="middle">S</text></a></g><g class="node"><a><path fill="none" stroke="#000" d="M12-173.7h30c6 0 12-6 12-12v-25.6c0-6-6-12-12-12H12c-6 0-12 6-12 12v25.6c0 6 6 12 12 12"></path><text x="26.61" y="-206.7" font-family="Times,serif" font-size="14" text-anchor="middle"> </text><path fill="none" stroke="#000" d="M0-198.5h53.21"></path><text x="26.61" y="-181.9" font-family="Times,serif" font-size="14" text-anchor="middle">a</text></a></g><g class="edge"><path fill="none" stroke="#000" d="M57.22-260.1c-3.59 7.2-8.41 16.87-13.15 26.36"></path><path stroke="#000" d="m47.3-232.38-7.59 7.39 1.33-10.51z"></path></g><g class="node"><a><path fill="none" stroke="#000" d="M80.27-186.1h37.46c4.14 0 8.27-4.13 8.27-8.27v-8.26c0-4.14-4.13-8.27-8.27-8.27H80.27c-4.14 0-8.27 4.13-8.27 8.27v8.26c0 4.14 4.13 8.27 8.27 8.27"></path><text x="98.89" y="-194.3" font-family="Times,serif" font-size="14" text-anchor="middle">S</text></a></g><g class="edge"><path fill="none" stroke="#000" d="M68.78-260.1c5.17 10.36 12.88 25.81 19.21 38.52"></path><path stroke="#000" d="m91.11-223.18 1.33 10.51-7.6-7.38z"></path></g><g class="node"><a><path fill="none" stroke="#000" d="M48-87.1h30c6 0 12-6 12-12v-25.6c0-6-6-12-12-12H48c-6 0-12 6-12 12v25.6c0 6 6 12 12 12"></path><text x="62.61" y="-120.1" font-family="Times,serif" font-size="14" text-anchor="middle"> </text><path fill="none" stroke="#000" d="M36-111.9h53.21"></path><text x="62.61" y="-95.3" font-family="Times,serif" font-size="14" text-anchor="middle">a</text></a></g><g class="edge"><path fill="none" stroke="#000" d="M93.99-185.74c-4.2 9.89-10.44 24.55-16.22 38.12"></path><path stroke="#000" d="m81.01-146.3-7.13 7.84.69-10.58z"></path></g><g class="node"><a><path fill="none" stroke="#000" d="M116.27-99.5h37.46c4.14 0 8.27-4.13 8.27-8.27v-8.26c0-4.14-4.13-8.27-8.27-8.27h-37.46c-4.14 0-8.27 4.13-8.27 8.27v8.26c0 4.14 4.13 8.27 8.27 8.27"></path><text x="134.89" y="-107.7" font-family="Times,serif" font-size="14" text-anchor="middle">S</text></a></g><g class="edge"><path fill="none" stroke="#000" d="M104.01-185.74c5.58 13.14 14.75 34.68 21.67 50.93"></path><path stroke="#000" d="m128.75-136.53.69 10.57-7.13-7.83z"></path></g><g class="node"><a><path fill="none" stroke="#000" d="M84-.5h30c6 0 12-6 12-12v-25.6c0-6-6-12-12-12H84c-6 0-12 6-12 12v25.6c0 6 6 12 12 12"></path><text x="98.61" y="-33.5" font-family="Times,serif" font-size="14" text-anchor="middle"> </text><path fill="none" stroke="#000" d="M72-25.3h53.21"></path><text x="98.61" y="-8.7" font-family="Times,serif" font-size="14" text-anchor="middle">a</text></a></g><g class="edge"><path fill="none" stroke="#000" d="M129.99-99.14c-4.2 9.89-10.44 24.55-16.22 38.12"></path><path stroke="#000" d="m117.01-59.7-7.13 7.84.69-10.58z"></path></g><g class="node"><a><path fill="none" stroke="#000" d="M156-.5h30c6 0 12-6 12-12v-25.6c0-6-6-12-12-12h-30c-6 0-12 6-12 12v25.6c0 6 6 12 12 12"></path><text x="170.89" y="-33.5" font-family="Times,serif" font-size="14" text-anchor="middle">S</text><path fill="none" stroke="#000" d="M144-25.3h53.79"></path><text x="170.89" y="-8.7" font-family="Times,serif" font-size="14" text-anchor="middle"> </text></a></g><g class="edge"><path fill="none" stroke="#000" d="M140.01-99.14c4.2 9.89 10.44 24.55 16.22 38.12"></path><path stroke="#000" d="m159.43-62.44.69 10.58-7.13-7.84z"></path></g></g></svg>