<svg xmlns="http://www.w3.org/2000/svg" width="350pt" height="160" viewBox="0 0 350 120.4"><g class="graph" transform="translate(4 116.4)"><path fill="#fff" d="M-4 4v-120.4h350V4z"></path><g class="node"><a><path fill="none" stroke="#000" d="M152.27-87.1h37.46c4.14 0 8.27-4.13 8.27-8.27v-8.26c0-4.14-4.13-8.27-8.27-8.27h-37.46c-4.14 0-8.27 4.13-8.27 8.27v8.26c0 4.14 4.13 8.27 8.27 8.27"></path><text x="170.89" y="-95.3" font-family="Times,serif" font-size="14" text-anchor="middle">S</text></a></g><g class="node"><a><path fill="none" stroke="#000" d="M12-.5h30c6 0 12-6 12-12v-25.6c0-6-6-12-12-12H12c-6 0-12 6-12 12v25.6c0 6 6 12 12 12"></path><text x="26.56" y="-33.5" font-family="Times,serif" font-size="14" text-anchor="middle">A</text><path fill="none" stroke="#000" d="M0-25.3h53.11"></path><text x="26.56" y="-8.7" font-family="Times,serif" font-size="14" text-anchor="middle">a</text></a></g><g class="edge"><path fill="none" stroke="#000" d="M143.73-87.97c-20.14 8.12-48.27 20.14-79.68 37.14"></path><path stroke="#000" d="m65.97-47.89-10.44 1.77 7.06-7.9z"></path></g><g class="node"><a><path fill="none" stroke="#000" d="M84-.5h30c6 0 12-6 12-12v-25.6c0-6-6-12-12-12H84c-6 0-12 6-12 12v25.6c0 6 6 12 12 12"></path><text x="98.75" y="-33.5" font-family="Times,serif" font-size="14" text-anchor="middle"> </text><path fill="none" stroke="#000" d="M72-25.3h53.5"></path><text x="98.75" y="-8.7" font-family="Times,serif" font-size="14" text-anchor="middle">,</text></a></g><g class="edge"><path fill="none" stroke="#000" d="M159.43-86.9c-7.71 7.74-18.27 18.32-28.39 28.47"></path><path stroke="#000" d="m133.68-56.12-9.54 4.61 4.58-9.55z"></path></g><g class="node"><a><path fill="none" stroke="#000" d="M156-.5h30c6 0 12-6 12-12v-25.6c0-6-6-12-12-12h-30c-6 0-12 6-12 12v25.6c0 6 6 12 12 12"></path><text x="170.56" y="-33.5" font-family="Times,serif" font-size="14" text-anchor="middle">A</text><path fill="none" stroke="#000" d="M144-25.3h53.11"></path><text x="170.56" y="-8.7" font-family="Times,serif" font-size="14" text-anchor="middle">a</text></a></g><g class="edge"><path fill="none" stroke="#000" d="M171-86.9v25.15"></path><path stroke="#000" d="m174.5-61.95-3.5 10-3.5-10z"></path></g><g class="node"><a><path fill="none" stroke="#000" d="M228-.5h30c6 0 12-6 12-12v-25.6c0-6-6-12-12-12h-30c-6 0-12 6-12 12v25.6c0 6 6 12 12 12"></path><text x="242.75" y="-33.5" font-family="Times,serif" font-size="14" text-anchor="middle"> </text><path fill="none" stroke="#000" d="M216-25.3h53.5"></path><text x="242.75" y="-8.7" font-family="Times,serif" font-size="14" text-anchor="middle">,</text></a></g><g class="edge"><path fill="none" stroke="#000" d="M182.57-86.9c7.71 7.74 18.27 18.32 28.39 28.47"></path><path stroke="#000" d="m213.28-61.06 4.58 9.55-9.54-4.61z"></path></g><g class="node"><a><path fill="none" stroke="#000" d="M300-.5h30c6 0 12-6 12-12v-25.6c0-6-6-12-12-12h-30c-6 0-12 6-12 12v25.6c0 6 6 12 12 12"></path><text x="314.56" y="-33.5" font-family="Times,serif" font-size="14" text-anchor="middle">A</text><path fill="none" stroke="#000" d="M288-25.3h53.11"></path><text x="314.56" y="-8.7" font-family="Times,serif" font-size="14" text-anchor="middle">a</text></a></g><g class="edge"><path fill="none" stroke="#000" d="M198.27-87.97c20.14 8.12 48.27 20.14 79.68 37.14"></path><path stroke="#000" d="m279.41-54.02 7.06 7.9-10.44-1.77z"></path></g></g></svg>