<svg xmlns="http://www.w3.org/2000/svg" width="722pt" height="182pt" viewBox="0 0 722 182.2"><g class="graph" transform="translate(4 178.2)"><path fill="#fff" d="M-4 4v-182.2h722V4z"></path><g class="node"><a><path fill="none" stroke="#000" d="M336.27-148.9h37.46c4.14 0 8.27-4.13 8.27-8.27v-8.26c0-4.14-4.13-8.27-8.27-8.27h-37.46c-4.14 0-8.27 4.13-8.27 8.27v8.26c0 4.14 4.13 8.27 8.27 8.27"></path><text x="354.6" y="-157.1" font-family="Times,serif" font-size="14" text-anchor="middle">object</text></a></g><g class="node"><a><path fill="none" stroke="#000" d="M78.33-87.1h45.34c4.13 0 8.26-4.13 8.26-8.27v-8.26c0-4.14-4.13-8.27-8.26-8.27H78.33c-4.13 0-8.26 4.13-8.26 8.27v8.26c0 4.14 4.13 8.27 8.26 8.27"></path><text x="101" y="-95.3" font-family="Times,serif" font-size="14" text-anchor="middle">member</text></a></g><g class="edge"><path fill="none" stroke="#000" d="M327.82-153.9c-44.24 10.41-132.11 31.1-184.55 43.45"></path><path stroke="#000" d="m144.34-107.11-10.54-1.11 8.93-5.7z"></path></g><g class="node"><a><path fill="none" stroke="#000" d="M224.33-87.1h45.34c4.13 0 8.26-4.13 8.26-8.27v-8.26c0-4.14-4.13-8.27-8.26-8.27h-45.34c-4.13 0-8.26 4.13-8.26 8.27v8.26c0 4.14 4.13 8.27 8.26 8.27"></path><text x="247" y="-95.3" font-family="Times,serif" font-size="14" text-anchor="middle">member</text></a></g><g class="edge"><path fill="none" stroke="#000" d="M333.66-148.49c-15.82 8.77-37.65 20.85-55.44 30.7"></path><path stroke="#000" d="m280.06-114.81-10.44 1.79 7.05-7.91z"></path></g><g class="node"><a><path fill="none" stroke="#000" d="M332.33-87.1h45.34c4.13 0 8.26-4.13 8.26-8.27v-8.26c0-4.14-4.13-8.27-8.26-8.27h-45.34c-4.13 0-8.26 4.13-8.26 8.27v8.26c0 4.14 4.13 8.27 8.26 8.27"></path><text x="355" y="-95.3" font-family="Times,serif" font-size="14" text-anchor="middle">member</text></a></g><g class="edge"><path fill="none" stroke="#000" d="M355-148.49v24.98"></path><path stroke="#000" d="m358.5-123.8-3.5 10-3.5-10z"></path></g><g class="node"><a><path fill="none" stroke="#000" d="M440.33-87.1h45.34c4.13 0 8.26-4.13 8.26-8.27v-8.26c0-4.14-4.13-8.27-8.26-8.27h-45.34c-4.13 0-8.26 4.13-8.26 8.27v8.26c0 4.14 4.13 8.27 8.26 8.27"></path><text x="463" y="-95.3" font-family="Times,serif" font-size="14" text-anchor="middle">member</text></a></g><g class="edge"><path fill="none" stroke="#000" d="M376.34-148.49c15.82 8.77 37.65 20.85 55.44 30.7"></path><path stroke="#000" d="m433.33-120.93 7.05 7.91-10.44-1.79z"></path></g><g class="node"><a><path fill="none" stroke="#000" d="M592.33-87.1h45.34c4.13 0 8.26-4.13 8.26-8.27v-8.26c0-4.14-4.13-8.27-8.26-8.27h-45.34c-4.13 0-8.26 4.13-8.26 8.27v8.26c0 4.14 4.13 8.27 8.26 8.27"></path><text x="615" y="-95.3" font-family="Times,serif" font-size="14" text-anchor="middle">member</text></a></g><g class="edge"><path fill="none" stroke="#000" d="m382.33-154.01 190.08 43.71"></path><path stroke="#000" d="m573.18-113.71 8.96 5.65-10.53 1.17z"></path></g><g class="node"><a><path fill="none" stroke="#000" d="M12-.5h30c6 0 12-6 12-12v-25.6c0-6-6-12-12-12H12c-6 0-12 6-12 12v25.6c0 6 6 12 12 12"></path><text x="26.94" y="-33.5" font-family="Times,serif" font-size="14" text-anchor="middle">string</text><path fill="none" stroke="#000" d="M0-25.3h53.89"></path><text x="26.94" y="-8.7" font-family="Times,serif" font-size="14" text-anchor="middle">i</text></a></g><g class="edge"><path fill="none" stroke="#000" d="M89.11-86.9c-7.93 7.74-18.77 18.32-29.18 28.47"></path><path stroke="#000" d="m62.42-55.97-9.6 4.48 4.71-9.49z"></path></g><g class="node"><a><path fill="none" stroke="#000" d="M83.62-.5h34.76c6 0 12-6 12-12v-25.6c0-6-6-12-12-12H83.62c-6 0-12 6-12 12v25.6c0 6 6 12 12 12"></path><text x="101" y="-33.5" font-family="Times,serif" font-size="14" text-anchor="middle">number</text><path fill="none" stroke="#000" d="M71.62-25.3h58.76"></path><text x="101" y="-8.7" font-family="Times,serif" font-size="14" text-anchor="middle">1</text></a></g><g class="edge"><path fill="none" stroke="#000" d="M101-86.9v25.15"></path><path stroke="#000" d="m104.5-61.95-3.5 10-3.5-10z"></path></g><g class="node"><a><path fill="none" stroke="#000" d="M160-.5h30c6 0 12-6 12-12v-25.6c0-6-6-12-12-12h-30c-6 0-12 6-12 12v25.6c0 6 6 12 12 12"></path><text x="174.94" y="-33.5" font-family="Times,serif" font-size="14" text-anchor="middle">string</text><path fill="none" stroke="#000" d="M148-25.3h53.89"></path><text x="174.94" y="-8.7" font-family="Times,serif" font-size="14" text-anchor="middle">s</text></a></g><g class="edge"><path fill="none" stroke="#000" d="M235.43-86.9c-7.71 7.74-18.27 18.32-28.39 28.47"></path><path stroke="#000" d="m209.68-56.12-9.54 4.61 4.58-9.55z"></path></g><g class="node"><a><path fill="none" stroke="#000" d="M232-.5h30c6 0 12-6 12-12v-25.6c0-6-6-12-12-12h-30c-6 0-12 6-12 12v25.6c0 6 6 12 12 12"></path><text x="246.94" y="-33.5" font-family="Times,serif" font-size="14" text-anchor="middle">string</text><path fill="none" stroke="#000" d="M220-25.3h53.89"></path><text x="246.94" y="-8.7" font-family="Times,serif" font-size="14" text-anchor="middle">a</text></a></g><g class="edge"><path fill="none" stroke="#000" d="M247-86.9v25.15"></path><path stroke="#000" d="m250.5-61.95-3.5 10-3.5-10z"></path></g><g class="node"><a><path fill="none" stroke="#000" d="M304-.5h30c6 0 12-6 12-12v-25.6c0-6-6-12-12-12h-30c-6 0-12 6-12 12v25.6c0 6 6 12 12 12"></path><text x="318.94" y="-33.5" font-family="Times,serif" font-size="14" text-anchor="middle">string</text><path fill="none" stroke="#000" d="M292-25.3h53.89"></path><text x="318.94" y="-8.7" font-family="Times,serif" font-size="14" text-anchor="middle">a</text></a></g><g class="edge"><path fill="none" stroke="#000" d="M349.22-86.9c-3.59 7.2-8.41 16.87-13.15 26.36"></path><path stroke="#000" d="m339.3-59.18-7.59 7.39 1.33-10.51z"></path></g><g class="node"><a><path fill="none" stroke="#000" d="M376-.5h30c6 0 12-6 12-12v-25.6c0-6-6-12-12-12h-30c-6 0-12 6-12 12v25.6c0 6 6 12 12 12"></path><text x="390.88" y="-33.5" font-family="Times,serif" font-size="14" text-anchor="middle">array</text><path fill="none" stroke="#000" d="M364-25.3h53.75"></path><text x="390.88" y="-8.7" font-family="Times,serif" font-size="14" text-anchor="middle"> </text></a></g><g class="edge"><path fill="none" stroke="#000" d="M360.78-86.9c3.59 7.2 8.41 16.87 13.15 26.36"></path><path stroke="#000" d="m376.96-62.3 1.33 10.51-7.59-7.39z"></path></g><g class="node"><a><path fill="none" stroke="#000" d="M448-.5h30c6 0 12-6 12-12v-25.6c0-6-6-12-12-12h-30c-6 0-12 6-12 12v25.6c0 6 6 12 12 12"></path><text x="462.94" y="-33.5" font-family="Times,serif" font-size="14" text-anchor="middle">string</text><path fill="none" stroke="#000" d="M436-25.3h53.89"></path><text x="462.94" y="-8.7" font-family="Times,serif" font-size="14" text-anchor="middle">f</text></a></g><g class="edge"><path fill="none" stroke="#000" d="M463-86.9v25.15"></path><path stroke="#000" d="m466.5-61.95-3.5 10-3.5-10z"></path></g><g class="node"><a><path fill="none" stroke="#000" d="M520.2-.5h37.6c6 0 12-6 12-12v-25.6c0-6-6-12-12-12h-37.6c-6 0-12 6-12 12v25.6c0 6 6 12 12 12"></path><text x="539" y="-33.5" font-family="Times,serif" font-size="14" text-anchor="middle">number</text><path fill="none" stroke="#000" d="M508.2-25.3h61.6"></path><text x="539" y="-8.7" font-family="Times,serif" font-size="14" text-anchor="middle">-0.1E+1</text></a></g><g class="edge"><path fill="none" stroke="#000" d="M475.21-86.9c8.23 7.81 19.5 18.53 30.29 28.78"></path><path stroke="#000" d="m507.66-60.9 4.84 9.42-9.66-4.35z"></path></g><g class="node"><a><path fill="none" stroke="#000" d="M600-.5h30c6 0 12-6 12-12v-25.6c0-6-6-12-12-12h-30c-6 0-12 6-12 12v25.6c0 6 6 12 12 12"></path><text x="614.94" y="-33.5" font-family="Times,serif" font-size="14" text-anchor="middle">string</text><path fill="none" stroke="#000" d="M588-25.3h53.89"></path><text x="614.94" y="-8.7" font-family="Times,serif" font-size="14" text-anchor="middle">o</text></a></g><g class="edge"><path fill="none" stroke="#000" d="M615-86.9v25.15"></path><path stroke="#000" d="m618.5-61.95-3.5 10-3.5-10z"></path></g><g class="node"><a><path fill="none" stroke="#000" d="M672-.5h30c6 0 12-6 12-12v-25.6c0-6-6-12-12-12h-30c-6 0-12 6-12 12v25.6c0 6 6 12 12 12"></path><text x="686.6" y="-33.5" font-family="Times,serif" font-size="14" text-anchor="middle">object</text><path fill="none" stroke="#000" d="M660-25.3h53.21"></path><text x="686.6" y="-8.7" font-family="Times,serif" font-size="14" text-anchor="middle"> </text></a></g><g class="edge"><path fill="none" stroke="#000" d="M626.57-86.9c7.71 7.74 18.27 18.32 28.39 28.47"></path><path stroke="#000" d="m657.28-61.06 4.58 9.55-9.54-4.61z"></path></g></g></svg>